<svg width="917" height="167" viewBox="0 0 917 167" fill="none" xmlns="http://www.w3.org/2000/svg">
<path d="M256.7 102.475C250.55 111.625 238.475 122.8 225.8 130.225C225.05 128.875 223.475 126.925 222.275 125.725C235.175 118.6 247.7 106.675 253.475 96.925H259.25C267.05 108.025 280.175 118.975 291.95 124.825C290.525 126.25 289.175 128.125 288.2 129.775C276.575 123.1 263.45 111.925 256.7 102.475ZM231.35 141.475H282.5V146.5H231.35V141.475ZM234.725 124.675H279.575V129.775H234.725V124.675ZM225.2 158.875H289.1V163.975H225.2V158.875ZM253.775 126.775H259.7V161.725H253.775V126.775ZM297.875 103.375H322.325V108.625H297.875V103.375ZM320.825 110.35H366.875V115.6H320.825V110.35ZM298.775 124.45H321.125V129.7H298.775V124.45ZM296.9 151.075C303.275 149.2 313.025 145.975 322.4 142.975L323.225 147.85C314.525 150.925 305.3 154.075 298.4 156.4L296.9 151.075ZM340.325 97H345.8V158.875C345.8 162.325 344.9 163.9 342.8 164.875C340.625 165.85 337.175 166 331.325 166C331.025 164.5 330.125 162.1 329.3 160.6C333.65 160.75 337.475 160.675 338.675 160.6C339.875 160.6 340.325 160.225 340.325 158.95V97ZM316.625 153.25C321.575 150.475 329.15 145.6 336.425 141.025L338.075 145.675C331.85 150.1 325.025 154.75 319.625 158.2L316.625 153.25ZM322.625 122.425L327.05 120.4C330.425 124.525 334.175 130.3 335.525 134.05L330.95 136.375C329.525 132.625 326 126.7 322.625 122.425ZM360.95 119.575L365.825 122.275C362.6 127 358.4 132.55 355.175 136.075L351.2 133.75C354.35 130.075 358.55 124 360.95 119.575ZM350.75 100.825L353.9 97.75C357.875 99.925 362.675 103.375 365 105.85L361.775 109.3C359.45 106.75 354.725 103.15 350.75 100.825ZM307.25 105.55H312.725V148.975L307.25 150.1V105.55ZM345.575 116.575C348.425 136.375 354.05 147.25 367.85 156.55C366.575 157.525 365 159.325 364.325 160.9C349.7 150.4 344 138.4 340.85 117.4L345.575 116.575ZM372.8 127.675H441.425V133.825H372.8V127.675ZM448.775 111.925H477.725V117.25H448.775V111.925ZM460.7 97.975H466.025V114.625H460.7V97.975ZM494.975 112.6H516.5V117.925H494.975V112.6ZM482.075 157.075H510.425V162.4H482.075V157.075ZM492.125 97H497.825V135.25H492.125V97ZM479.45 132.925H513.275V165.625H507.575V138.175H484.925V165.925H479.45V132.925ZM447.35 151.9C455.075 150.4 466.925 147.85 478.25 145.225L478.85 150.4C468.2 152.95 456.8 155.65 448.55 157.525L447.35 151.9ZM451.625 121.15L456.2 120.325C458.15 128.65 459.425 139.3 459.575 146.575L454.625 147.4C454.7 140.35 453.35 129.475 451.625 121.15ZM469.1 119.5L474.65 120.55C473.3 129.925 471.275 142 469.475 149.35L464.825 148.3C466.55 140.875 468.35 128.275 469.1 119.5ZM572.675 100.75L576.425 97.525C580.325 100.15 585.05 104.05 587.375 106.675L583.4 110.2C581.15 107.5 576.575 103.45 572.675 100.75ZM523.625 111.025H590.45V116.5H523.625V111.025ZM526.175 127.75H559.325V133.225H526.175V127.75ZM539.675 130.675H545.3V157.45H539.675V130.675ZM523.925 158.2C532.85 156.475 547.55 153.475 561.425 150.475L561.875 155.5C549.05 158.5 535.325 161.65 525.65 163.825L523.925 158.2ZM561.8 97.375H567.8C567.575 132.175 574.325 160.3 583.55 160.3C585.65 160.3 586.55 156.175 587 146.125C588.275 147.4 590.45 148.675 592.025 149.2C591.05 162.325 588.875 166.15 583.1 166.15C568.175 166.15 562.1 133.675 561.8 97.375ZM613.325 131.95V153.85H607.775V137.125H597.95V131.95H613.325ZM613.325 150.85C616.925 156.325 623.525 158.95 632.375 159.325C640.625 159.55 657.8 159.4 666.8 158.8C666.05 160.075 665.225 162.7 664.925 164.425C656.6 164.725 640.775 164.875 632.375 164.65C622.55 164.2 615.725 161.575 610.85 155.65C607.4 158.875 603.725 162.1 599.9 165.4L596.975 159.775C600.35 157.375 604.625 154.075 608.3 150.85H613.325ZM601.175 101.425L604.925 97.975C609.425 100.3 614.825 104.05 617.375 106.975L613.475 110.8C611 107.875 605.75 103.975 601.175 101.425ZM598.25 116.725L602 113.05C606.65 115.225 612.35 118.825 615.125 121.75L611.225 125.725C608.6 122.875 603.05 119.05 598.25 116.725ZM623.3 101.35H661.025V106.675H623.3V101.35ZM618.425 118.9H666.5V124.225H618.425V118.9ZM634.1 121.6L640.25 123.4C637.175 131.425 633.05 141.475 629.6 147.7L625.025 146.05C628.25 139.6 632.15 129.025 634.1 121.6ZM618.95 145.225C628.775 144.625 644.675 143.35 659.75 142.075V147.175C645.35 148.6 630.125 149.95 619.85 150.85L618.95 145.225ZM647.3 130.9L651.8 128.65C657.575 135.4 663.8 144.625 666.125 150.775L661.25 153.475C659 147.325 653.075 137.875 647.3 130.9ZM674.6 146.35C674.375 145.3 673.55 142.75 672.875 141.4C674.525 141.1 676.25 139.225 678.575 136.45C681.05 133.675 689 122.95 694.175 112.6L698.675 115.3C692.75 125.65 685.475 136.075 678.35 143.5V143.65C678.35 143.65 674.6 145.225 674.6 146.35ZM674.6 146.35L674.375 141.925L677.075 140.05L696.95 136.45C696.8 137.875 696.8 139.975 696.875 141.1C678.65 144.775 676.175 145.45 674.6 146.35ZM674.075 128.35C673.85 127.225 672.95 124.6 672.35 123.175C673.625 122.875 674.825 121.075 676.475 118.525C678.125 115.975 683.375 106.225 686.225 97.15L691.325 99.475C687.65 108.775 682.475 118.525 677.375 125.35V125.5C677.375 125.5 674.075 127.225 674.075 128.35ZM674.075 128.35L673.925 124.375L676.55 122.65L690.2 121.225C689.975 122.65 689.825 124.6 689.825 125.65C677.3 127.3 675.275 127.75 674.075 128.35ZM672.8 156.025C679.175 154.75 688.85 152.5 698.3 150.25L698.825 155.05C689.975 157.3 680.825 159.625 673.925 161.425L672.8 156.025ZM707.075 125.2H738.2V130.3H707.075V125.2ZM707.225 139.975H738.35V145.075H707.225V139.975ZM706.7 155.425H741.2V160.675H706.7V155.425ZM721.7 112.375H726.95V158.275H721.7V112.375ZM709.625 110.575H740.15V115.75H709.625V166.075H704.375V114.1L707.675 110.575H709.625ZM710.45 97.45L715.85 98.95C712.25 109.15 706.4 120.925 699.35 128.875C698.825 127.525 697.475 125.2 696.575 123.925C702.575 116.95 707.825 106.075 710.45 97.45ZM718.925 99.4L723.65 97.45C725.9 100.675 728.15 105.025 729.125 107.875L724.025 110.125C723.2 107.2 721.025 102.775 718.925 99.4ZM752.3 102.1H811.4V107.65H752.3V102.1ZM748.4 133.975H815.675V139.6H748.4V133.975ZM757.55 112.825L762.575 111.25C765.65 116.725 768.725 123.85 769.775 128.275L764.375 130.075C763.325 125.65 760.4 118.375 757.55 112.825ZM801.05 110.95L807.05 112.6C804.2 118.675 800.675 125.875 797.75 130.375L792.95 128.8C795.725 124.075 799.25 116.35 801.05 110.95ZM778.925 104.275H784.7V166H778.925V104.275ZM835.625 157.225H877.85V162.7H835.625V157.225ZM833.075 134.05H880.85V165.85H874.925V139.45H838.775V166H833.075V134.05ZM848.15 96.775L854.3 98.95C849.8 107.65 843.5 118 838.475 124.6L833.6 122.5C838.55 115.825 844.7 104.8 848.15 96.775ZM866.15 108.925L870.575 105.625C878.225 111.7 887.075 120.55 890.975 126.775L886.175 130.525C882.425 124.3 873.875 115.225 866.15 108.925ZM824.225 120.025C838.475 119.65 861.575 118.675 882.95 117.7L882.65 123.1C861.575 124.225 838.925 125.2 824.6 125.8L824.225 120.025Z" fill="#3D3D3D"/>
<path fill-rule="evenodd" clip-rule="evenodd" d="M144.404 95.0479C150.007 88.7214 150.007 81.6507 144.404 73.8356C101.451 33.2718 76.799 11.3152 70.4493 7.96589C69.9538 7.70454 69.4083 7.42507 68.8127 7.12747C70.7569 6.5272 72.721 6.00046 74.7048 5.54726C76.6887 5.09406 78.6869 4.71568 80.6993 4.41213C82.7117 4.10857 84.7328 3.88068 86.7624 3.72847C88.7921 3.57626 90.8246 3.50016 92.8599 3.50016C94.1895 3.50016 95.5182 3.53266 96.8461 3.59766C98.174 3.66265 99.4995 3.76007 100.823 3.88991C102.146 4.01975 103.465 4.18186 104.78 4.37623C106.095 4.5706 107.405 4.79699 108.709 5.05543C110.013 5.31386 111.31 5.60401 112.599 5.92588C113.889 6.24775 115.17 6.60094 116.443 6.98547C117.715 7.37 118.977 7.7854 120.229 8.23167C121.48 8.67794 122.72 9.15454 123.949 9.66147C125.177 10.1684 126.392 10.705 127.594 11.2714C128.796 11.8378 129.983 12.4332 131.155 13.0576C132.328 13.6821 133.485 14.3348 134.625 15.0158C135.765 15.6968 136.888 16.4053 137.994 17.1413C139.099 17.8772 140.186 18.6397 141.253 19.4288C142.322 20.2179 143.37 21.0327 144.398 21.873C145.425 22.7134 146.431 23.5784 147.416 24.468C148.402 25.3576 149.364 26.2707 150.304 27.2074C151.244 28.1441 152.161 29.1032 153.054 30.0847C153.946 31.0662 154.814 32.069 155.658 33.0929C156.501 34.1169 157.319 35.1609 158.112 36.2249C158.904 37.2889 159.669 38.3716 160.408 39.473C161.146 40.5744 161.857 41.6932 162.54 42.8294C163.224 43.9657 163.879 45.1179 164.506 46.2861C165.132 47.4544 165.73 48.6372 166.298 49.8347C166.867 51.0322 167.405 52.2429 167.914 53.4667C168.423 54.6905 168.901 55.9261 169.35 57.1733C169.798 58.4206 170.215 59.678 170.6 60.9456C170.986 62.2133 171.341 63.4896 171.664 64.7745C171.987 66.0595 172.278 67.3515 172.538 68.6508C172.797 69.95 173.024 71.2548 173.219 72.5651C173.415 73.8754 173.577 75.1897 173.707 76.508C173.837 77.8263 173.935 79.147 174.001 80.47C174.066 81.7932 174.098 83.1171 174.098 84.4418C174.098 88.3082 173.822 92.1549 173.268 95.9818C172.715 99.8087 171.891 103.577 170.796 107.286C171.079 107.697 171.359 108.106 171.636 108.515C190.555 144.99 187.205 157.064 181.662 162.034C181.558 162.127 181.454 162.222 181.348 162.317C175.757 167.355 167.426 174.862 125.635 144.729C117.792 138.775 109.388 132.263 100.424 125.192C75.4784 101.949 61.8453 88.7382 59.5241 85.5582L86.9771 57.0891L72.4102 44.8083L41.5956 74.9521C35.9929 81.2785 35.9929 88.3493 41.5956 96.1643C84.5493 136.728 109.201 158.685 115.551 162.034C115.604 162.062 115.656 162.089 115.707 162.117C111.997 163.2 108.228 164.015 104.401 164.562C100.573 165.11 96.7264 165.384 92.8599 165.384C91.5304 165.384 90.2016 165.351 88.8737 165.285C87.5458 165.221 86.2203 165.123 84.8972 164.994C83.574 164.864 82.2548 164.701 80.9397 164.507C79.6246 164.313 78.315 164.087 77.011 163.828C75.7071 163.569 74.4102 163.279 73.1205 162.957C71.8308 162.636 70.5499 162.283 69.2776 161.898C68.0053 161.513 66.7433 161.098 65.4915 160.652C64.2396 160.205 62.9995 159.729 61.7712 159.222C60.5429 158.715 59.3278 158.178 58.1259 157.612C56.924 157.046 55.7368 156.45 54.5643 155.826C53.3917 155.201 52.2353 154.549 51.0949 153.867C49.9545 153.186 48.8316 152.478 47.7261 151.742C46.6207 151.006 45.534 150.243 44.4661 149.454C43.3983 148.665 42.3505 147.851 41.3227 147.01C40.2949 146.17 39.2885 145.305 38.3034 144.416C37.3183 143.526 36.3556 142.612 35.4156 141.676C34.4755 140.739 33.5589 139.78 32.666 138.799C31.7732 137.817 30.905 136.814 30.0616 135.79C29.2182 134.766 28.4005 133.722 27.6084 132.659C26.8164 131.594 26.0511 130.512 25.3124 129.411C24.5738 128.309 23.8628 127.19 23.1793 126.054C22.4957 124.918 21.8406 123.766 21.2138 122.597C20.5871 121.429 19.9895 120.246 19.4211 119.048C18.8526 117.851 18.314 116.641 17.8052 115.416C17.2964 114.193 16.818 112.957 16.3701 111.71C15.9223 110.463 15.5054 109.205 15.1194 107.938C14.7335 106.67 14.379 105.394 14.0559 104.109C13.7329 102.824 13.4417 101.532 13.1823 100.233C12.9229 98.9334 12.6956 97.6286 12.5006 96.3183C12.3055 95.008 12.1428 93.6937 12.0125 92.3754C11.8822 91.0571 11.7844 89.7364 11.7191 88.4134C11.6539 87.0902 11.6213 85.7664 11.6213 84.4418C11.6213 80.7171 11.8781 77.0102 12.3917 73.3209C12.9053 69.6316 13.6709 65.995 14.6883 62.411C14.4115 62.0067 14.1378 61.6033 13.8671 61.2008L14.9829 62.6713C-4.62644 25.2707 -1.26484 12.9899 4.33782 7.96589C4.44173 7.87273 4.54641 7.7784 4.65208 7.68319C10.2434 2.6448 18.5739 -4.86193 60.3645 25.2707C68.2082 31.225 76.6122 37.7375 85.5765 44.8083C110.522 68.0505 124.155 81.2617 126.476 84.4418L99.0229 112.911L113.59 125.192L144.404 95.0479Z" fill="url(#paint0_linear_30_82)"/>
<path d="M34.7037 36.3103C13.4136 41.8923 -11.8014 110.553 53.7528 156.327C70.5628 166.003 91.1069 168.05 115.385 162.468L79.528 132.324L45.3518 99.3888C37.5081 91.9459 35.8273 84.503 40.3094 77.06C43.2975 73.7107 47.5929 69.4311 53.1955 64.221C58.7982 58.6389 65.3336 52.3124 72.8018 45.2418C61.5965 35.5661 48.8971 32.589 34.7037 36.3103Z" fill="url(#paint1_linear_30_82)"/>
<path d="M151.689 133.836C172.979 128.254 195.388 49.2732 132.64 13.8192C115.456 3.21753 94.3519 0.893872 69.3267 6.84819L106.865 37.8229L141.041 70.7577C148.884 78.2006 150.565 85.6435 146.083 93.0864C143.095 96.4357 138.8 100.715 133.197 105.925C127.594 111.508 121.059 117.834 113.591 124.905C124.796 134.58 137.495 137.558 151.689 133.836Z" fill="url(#paint2_linear_30_82)"/>
<path d="M281.684 58.9555V73.6651C277.737 74.4434 273.873 75.0271 270.09 75.4163C266.308 75.8054 261.826 76 256.646 76C249.985 76 244.373 75.4552 239.81 74.3656C235.246 73.276 231.587 71.3497 228.832 68.5868C226.078 65.8239 224.084 61.913 222.85 56.8541C221.617 51.7952 221 45.2965 221 37.3579C221 29.7307 221.617 23.4654 222.85 18.5622C224.084 13.659 226.078 9.86482 228.832 7.17972C231.587 4.49462 235.246 2.62673 239.81 1.57604C244.373 0.525346 249.985 0 256.646 0C261.826 0 266.308 0.175114 270.09 0.525345C273.873 0.875575 277.737 1.47875 281.684 2.33487V17.5115L281.314 17.745C277.861 16.9667 274.531 16.4025 271.324 16.0522C268.117 15.702 264.17 15.5269 259.483 15.5269C255.7 15.5269 252.596 15.7798 250.17 16.2857C247.745 16.7916 245.833 17.7839 244.435 19.2627C243.037 20.7414 242.071 22.9206 241.536 25.8003C241.002 28.68 240.735 32.5325 240.735 37.3579C240.735 42.4168 241.002 46.4834 241.536 49.5576C242.071 52.6318 243.037 54.9473 244.435 56.5038C245.833 58.0604 247.745 59.1111 250.17 59.6559C252.596 60.2007 255.7 60.4731 259.483 60.4731C264.088 60.4731 268.014 60.3369 271.262 60.0645C274.51 59.7921 277.779 59.2668 281.068 58.4885L281.684 58.9555ZM287.851 46.9309C287.851 36.5018 290.195 28.9913 294.882 24.3994C299.569 19.8075 307.504 17.5115 318.687 17.5115C326.17 17.5115 332.172 18.5233 336.695 20.5468C341.218 22.5704 344.486 25.7419 346.501 30.0614C348.515 34.381 349.523 40.0041 349.523 46.9309C349.523 53.7798 348.515 59.3446 346.501 63.6252C344.486 67.9058 341.218 71.0384 336.695 73.023C332.172 75.0077 326.17 76 318.687 76C307.504 76 299.569 73.7235 294.882 69.1705C290.195 64.6175 287.851 57.2043 287.851 46.9309ZM318.687 60.0061C323.456 60.0061 326.684 59.0138 328.369 57.0292C330.055 55.0445 330.898 51.5617 330.898 46.5806C330.898 41.8331 330.055 38.4281 328.369 36.3656C326.684 34.3031 323.456 33.2719 318.687 33.2719C314.082 33.2719 310.896 34.3031 309.128 36.3656C307.36 38.4281 306.476 41.8331 306.476 46.5806C306.476 51.5617 307.36 55.0445 309.128 57.0292C310.896 59.0138 314.082 60.0061 318.687 60.0061ZM360.007 74.9493V1.05069H394.172C400.997 1.05069 406.712 1.57604 411.317 2.62673C415.922 3.67742 419.622 5.52586 422.418 8.17204C425.214 10.8182 427.228 14.4956 428.462 19.2043C429.695 23.913 430.312 29.9642 430.312 37.3579C430.312 45.063 429.695 51.3671 428.462 56.2704C427.228 61.1736 425.214 64.9872 422.418 67.7112C419.622 70.4352 415.922 72.3226 411.317 73.3733C406.712 74.424 400.997 74.9493 394.172 74.9493H360.007ZM391.336 16.8111H379.741V59.1889H391.336C396.105 59.1889 399.867 58.6831 402.621 57.6713C405.376 56.6595 407.349 54.597 408.542 51.4839C409.734 48.3707 410.33 43.6621 410.33 37.3579C410.33 31.3651 409.734 26.9094 408.542 23.9908C407.349 21.0722 405.376 19.1459 402.621 18.212C399.867 17.278 396.105 16.8111 391.336 16.8111ZM438.329 46.9309C438.329 36.5018 440.672 28.9913 445.359 24.3994C450.046 19.8075 457.981 17.5115 469.164 17.5115C476.647 17.5115 482.65 18.5233 487.172 20.5468C491.695 22.5704 494.964 25.7419 496.978 30.0614C498.993 34.381 500 40.0041 500 46.9309C500 53.7798 498.993 59.3446 496.978 63.6252C494.964 67.9058 491.695 71.0384 487.172 73.023C482.65 75.0077 476.647 76 469.164 76C457.981 76 450.046 73.7235 445.359 69.1705C440.672 64.6175 438.329 57.2043 438.329 46.9309ZM469.164 60.0061C473.934 60.0061 477.161 59.0138 478.847 57.0292C480.532 55.0445 481.375 51.5617 481.375 46.5806C481.375 41.8331 480.532 38.4281 478.847 36.3656C477.161 34.3031 473.934 33.2719 469.164 33.2719C464.56 33.2719 461.373 34.3031 459.605 36.3656C457.838 38.4281 456.954 41.8331 456.954 46.5806C456.954 51.5617 457.838 55.0445 459.605 57.0292C461.373 59.0138 464.56 60.0061 469.164 60.0061Z" fill="#3D3D3D"/>
<defs>
<linearGradient id="paint0_linear_30_82" x1="5.02161" y1="3" x2="162.797" y2="186.906" gradientUnits="userSpaceOnUse">
<stop stop-color="#15B5FE"/>
<stop offset="0.485344" stop-color="#2462FE"/>
<stop offset="1" stop-color="#903FFE"/>
</linearGradient>
<linearGradient id="paint1_linear_30_82" x1="27.2221" y1="40.0329" x2="134.214" y2="136.781" gradientUnits="userSpaceOnUse">
<stop stop-color="#9442FF"/>
<stop offset="1" stop-color="#1AB2FD"/>
</linearGradient>
<linearGradient id="paint2_linear_30_82" x1="69.3267" y1="3.63601" x2="186.722" y2="92.9037" gradientUnits="userSpaceOnUse">
<stop stop-color="#9442FF"/>
<stop offset="1" stop-color="#1AB2FD"/>
</linearGradient>
</defs>
</svg>
