<svg width="487" height="147" viewBox="0 0 487 147" fill="none" xmlns="http://www.w3.org/2000/svg">
<path fill-rule="evenodd" clip-rule="evenodd" d="M128.871 82.448C133.871 76.7814 133.871 70.448 128.871 63.448C90.5379 27.1147 68.5379 7.44799 62.8712 4.44799C62.429 4.2139 61.9422 3.96357 61.4107 3.69701C63.1458 3.15934 64.8986 2.68754 66.669 2.2816C68.4395 1.87567 70.2227 1.53675 72.0187 1.26485C73.8147 0.992951 75.6183 0.788833 77.4296 0.652498C79.241 0.516163 81.0548 0.447996 82.8712 0.447996C84.0578 0.447996 85.2436 0.477106 86.4286 0.535325C87.6137 0.593545 88.7966 0.680804 89.9774 0.797103C91.1582 0.913402 92.3355 1.0586 93.5091 1.2327C94.6829 1.4068 95.8516 1.60958 97.0152 1.84106C98.179 2.07254 99.3363 2.33243 100.487 2.62073C101.638 2.90903 102.782 3.2254 103.917 3.56982C105.052 3.91425 106.179 4.28633 107.296 4.68605C108.413 5.08578 109.519 5.51267 110.616 5.96673C111.712 6.42079 112.796 6.90147 113.869 7.40877C114.942 7.91607 116.001 8.44938 117.047 9.0087C118.094 9.56802 119.126 10.1527 120.144 10.7626C121.161 11.3726 122.163 12.0072 123.15 12.6664C124.137 13.3256 125.106 14.0086 126.059 14.7154C127.012 15.4222 127.948 16.152 128.865 16.9047C129.782 17.6575 130.68 18.4322 131.559 19.229C132.438 20.0258 133.297 20.8437 134.136 21.6827C134.975 22.5217 135.793 23.3808 136.59 24.2599C137.387 25.1391 138.161 26.0373 138.914 26.9544C139.667 27.8716 140.397 28.8068 141.104 29.7598C141.811 30.7128 142.494 31.6826 143.153 32.6691C143.812 33.6557 144.446 34.6578 145.056 35.6755C145.666 36.6933 146.251 37.7253 146.81 38.7717C147.369 39.8181 147.903 40.8776 148.41 41.9502C148.917 43.0228 149.398 44.1072 149.852 45.2034C150.306 46.2996 150.733 47.4063 151.133 48.5234C151.533 49.6406 151.905 50.7669 152.249 51.9023C152.594 53.0378 152.91 54.181 153.198 55.3319C153.487 56.4829 153.747 57.6402 153.978 58.8039C154.209 59.9677 154.412 61.1364 154.586 62.31C154.761 63.4837 154.906 64.6609 155.022 65.8417C155.138 67.0225 155.225 68.2055 155.284 69.3905C155.342 70.5757 155.371 71.7615 155.371 72.948C155.371 76.4112 155.124 79.8567 154.63 83.2845C154.137 86.7123 153.401 90.0875 152.424 93.4099C152.677 93.7776 152.926 94.1445 153.173 94.5105C170.057 127.181 167.068 137.996 162.121 142.448C162.028 142.531 161.935 142.616 161.841 142.701C156.851 147.214 149.416 153.938 112.121 126.948C105.121 121.615 97.6212 115.782 89.6212 109.448C67.3594 88.6298 55.1928 76.7964 53.1212 73.948L77.6212 48.448L64.6212 37.448L37.1212 64.448C32.1212 70.1147 32.1212 76.448 37.1212 83.448C75.4546 119.782 97.4545 139.448 103.121 142.448C103.168 142.473 103.215 142.498 103.261 142.522C99.9497 143.492 96.5862 144.222 93.1705 144.712C89.7549 145.203 86.3218 145.448 82.8712 145.448C81.6847 145.448 80.4989 145.419 79.3138 145.36C78.1288 145.302 76.9458 145.215 75.765 145.099C74.5842 144.983 73.4069 144.837 72.2332 144.663C71.0596 144.489 69.8909 144.287 68.7271 144.055C67.5635 143.823 66.4061 143.563 65.2551 143.275C64.1042 142.987 62.961 142.671 61.8256 142.326C60.6902 141.982 59.5639 141.61 58.4467 141.21C57.3295 140.81 56.2228 140.383 55.1266 139.929C54.0304 139.475 52.946 138.995 51.8734 138.487C50.8008 137.98 49.7413 137.447 48.6949 136.887C47.6485 136.328 46.6165 135.743 45.5987 135.133C44.5811 134.523 43.5789 133.889 42.5923 133.229C41.6058 132.57 40.636 131.887 39.683 131.18C38.73 130.474 37.7949 129.744 36.8777 128.991C35.9605 128.239 35.0624 127.464 34.1832 126.667C33.304 125.87 32.445 125.052 31.606 124.213C30.767 123.374 29.9491 122.515 29.1522 121.636C28.3554 120.757 27.5807 119.859 26.8279 118.941C26.0753 118.024 25.3455 117.089 24.6386 116.136C23.9318 115.183 23.2488 114.213 22.5896 113.227C21.9305 112.241 21.2959 111.238 20.6859 110.22C20.0759 109.203 19.4913 108.171 18.9319 107.124C18.3726 106.078 17.8393 105.018 17.332 103.945C16.8247 102.873 16.344 101.789 15.8899 100.692C15.4359 99.5962 15.009 98.4897 14.6092 97.3725C14.2096 96.2553 13.8375 95.129 13.493 93.9936C13.1486 92.8582 12.8323 91.715 12.5439 90.564C12.2557 89.4131 11.9958 88.2558 11.7643 87.092C11.5328 85.9283 11.33 84.7596 11.1559 83.5859C10.9819 82.4123 10.8367 81.235 10.7203 80.0542C10.6041 78.8734 10.5168 77.6905 10.4585 76.5054C10.4003 75.3203 10.3712 74.1345 10.3712 72.948C10.3712 69.6118 10.6004 66.2915 11.0587 62.987C11.5171 59.6825 12.2003 56.4251 13.1083 53.2149C12.8613 52.8528 12.617 52.4915 12.3754 52.1309L13.3712 53.448C-4.12878 19.948 -1.12878 8.94799 3.87122 4.44799C3.96395 4.36454 4.05737 4.28005 4.15167 4.19477C9.14153 -0.318156 16.5759 -7.042 53.8712 19.948C60.8712 25.2814 68.3712 31.1147 76.3712 37.448C98.6332 58.2663 110.8 70.0996 112.871 72.948L88.3712 98.448L101.371 109.448L128.871 82.448Z" fill="url(#paint0_linear_208_14)"/>
<path d="M30.9709 29.8368C11.9709 34.8366 -10.5318 96.3366 47.9709 137.337C62.9727 146.004 81.3069 147.837 102.974 142.837L70.9736 115.837L40.4736 86.3367C33.4736 79.67 31.9736 73.0034 35.9736 66.3367C38.6403 63.3367 42.4736 59.5034 47.4736 54.8367C52.4736 49.8367 58.306 44.1701 64.9709 37.8368C54.9709 29.1703 43.6376 26.5036 30.9709 29.8368Z" fill="url(#paint1_linear_208_14)"/>
<path d="M135.372 117.192C154.372 112.192 174.371 41.448 118.372 9.69156C103.037 0.195559 84.2028 -1.88576 61.8694 3.44757L95.3694 31.1919L125.869 60.6919C132.869 67.3585 134.369 74.0252 130.369 80.6919C127.703 83.6919 123.869 87.5252 118.869 92.1919C113.869 97.1919 108.037 102.858 101.372 109.192C111.372 117.858 122.705 120.525 135.372 117.192Z" fill="url(#paint2_linear_208_14)"/>
<path d="M263.207 64.8506V80.7816C259.161 81.6245 255.199 82.2567 251.322 82.6782C247.444 83.0996 242.851 83.3104 237.54 83.3104C230.713 83.3104 224.96 82.7203 220.282 81.5402C215.603 80.3602 211.853 78.274 209.029 75.2816C206.205 72.2893 204.161 68.0537 202.897 62.5747C201.632 57.0958 201 50.0575 201 41.4598C201 33.1992 201.632 26.4138 202.897 21.1034C204.161 15.7931 206.205 11.6839 209.029 8.77586C211.853 5.86782 215.603 3.84483 220.282 2.7069C224.96 1.56897 230.713 1 237.54 1C242.851 1 247.444 1.18965 251.322 1.56896C255.199 1.94827 259.161 2.60153 263.207 3.52874V19.9655L262.828 20.2184C259.287 19.3755 255.874 18.7644 252.586 18.3851C249.299 18.0057 245.253 17.8161 240.448 17.8161C236.571 17.8161 233.389 18.09 230.902 18.6379C228.416 19.1858 226.456 20.2605 225.023 21.8621C223.59 23.4636 222.6 25.8238 222.052 28.9425C221.504 32.0613 221.23 36.2337 221.23 41.4598C221.23 46.9387 221.504 51.3429 222.052 54.6724C222.6 58.0019 223.59 60.5096 225.023 62.1954C226.456 63.8812 228.416 65.0192 230.902 65.6092C233.389 66.1992 236.571 66.4943 240.448 66.4943C245.169 66.4943 249.193 66.3467 252.523 66.0517C255.853 65.7567 259.203 65.1877 262.575 64.3448L263.207 64.8506ZM269.529 51.8276C269.529 40.5326 271.931 32.3985 276.736 27.4253C281.54 22.4521 289.674 19.9655 301.138 19.9655C308.808 19.9655 314.962 21.0613 319.598 23.2529C324.234 25.4444 327.584 28.8793 329.649 33.5575C331.715 38.2356 332.747 44.3257 332.747 51.8276C332.747 59.2452 331.715 65.272 329.649 69.908C327.584 74.5441 324.234 77.9368 319.598 80.0862C314.962 82.2356 308.808 83.3104 301.138 83.3104C289.674 83.3104 281.54 80.8448 276.736 75.9138C271.931 70.9828 269.529 62.954 269.529 51.8276ZM301.138 65.9885C306.027 65.9885 309.335 64.9138 311.063 62.7644C312.791 60.6149 313.655 56.8429 313.655 51.4483C313.655 46.3065 312.791 42.6188 311.063 40.3851C309.335 38.1513 306.027 37.0345 301.138 37.0345C296.418 37.0345 293.151 38.1513 291.339 40.3851C289.527 42.6188 288.621 46.3065 288.621 51.4483C288.621 56.8429 289.527 60.6149 291.339 62.7644C293.151 64.9138 296.418 65.9885 301.138 65.9885ZM343.494 82.1724V2.13793H378.517C385.513 2.13793 391.372 2.70689 396.092 3.84483C400.812 4.98276 404.605 6.98467 407.471 9.85057C410.337 12.7165 412.402 16.6992 413.667 21.7989C414.931 26.8985 415.563 33.4521 415.563 41.4598C415.563 49.8046 414.931 56.6322 413.667 61.9425C412.402 67.2529 410.337 71.3832 407.471 74.3333C404.605 77.2835 400.812 79.3276 396.092 80.4655C391.372 81.6035 385.513 82.1724 378.517 82.1724H343.494ZM375.609 19.2069H363.724V65.1034H375.609C380.498 65.1034 384.354 64.5556 387.178 63.4598C390.002 62.364 392.025 60.1303 393.247 56.7586C394.469 53.387 395.08 48.2874 395.08 41.4598C395.08 34.9693 394.469 30.1437 393.247 26.9828C392.025 23.8218 390.002 21.7356 387.178 20.7241C384.354 19.7126 380.498 19.2069 375.609 19.2069ZM423.782 51.8276C423.782 40.5326 426.184 32.3985 430.989 27.4253C435.793 22.4521 443.927 19.9655 455.391 19.9655C463.061 19.9655 469.215 21.0613 473.851 23.2529C478.487 25.4444 481.837 28.8793 483.902 33.5575C485.967 38.2356 487 44.3257 487 51.8276C487 59.2452 485.967 65.272 483.902 69.908C481.837 74.5441 478.487 77.9368 473.851 80.0862C469.215 82.2356 463.061 83.3104 455.391 83.3104C443.927 83.3104 435.793 80.8448 430.989 75.9138C426.184 70.9828 423.782 62.954 423.782 51.8276ZM455.391 65.9885C460.28 65.9885 463.588 64.9138 465.316 62.7644C467.044 60.6149 467.908 56.8429 467.908 51.4483C467.908 46.3065 467.044 42.6188 465.316 40.3851C463.588 38.1513 460.28 37.0345 455.391 37.0345C450.671 37.0345 447.404 38.1513 445.592 40.3851C443.78 42.6188 442.874 46.3065 442.874 51.4483C442.874 56.8429 443.78 60.6149 445.592 62.7644C447.404 64.9138 450.671 65.9885 455.391 65.9885Z" fill="#3D3D3D"/>
<path d="M226.84 107.32C223.56 112.2 217.12 118.16 210.36 122.12C209.96 121.4 209.12 120.36 208.48 119.72C215.36 115.92 222.04 109.56 225.12 104.36H228.2C232.36 110.28 239.36 116.12 245.64 119.24C244.88 120 244.16 121 243.64 121.88C237.44 118.32 230.44 112.36 226.84 107.32ZM213.32 128.12H240.6V130.8H213.32V128.12ZM215.12 119.16H239.04V121.88H215.12V119.16ZM210.04 137.4H244.12V140.12H210.04V137.4ZM225.28 120.28H228.44V138.92H225.28V120.28ZM248.8 107.8H261.84V110.6H248.8V107.8ZM261.04 111.52H285.6V114.32H261.04V111.52ZM249.28 119.04H261.2V121.84H249.28V119.04ZM248.28 133.24C251.68 132.24 256.88 130.52 261.88 128.92L262.32 131.52C257.68 133.16 252.76 134.84 249.08 136.08L248.28 133.24ZM271.44 104.4H274.36V137.4C274.36 139.24 273.88 140.08 272.76 140.6C271.6 141.12 269.76 141.2 266.64 141.2C266.48 140.4 266 139.12 265.56 138.32C267.88 138.4 269.92 138.36 270.56 138.32C271.2 138.32 271.44 138.12 271.44 137.44V104.4ZM258.8 134.4C261.44 132.92 265.48 130.32 269.36 127.88L270.24 130.36C266.92 132.72 263.28 135.2 260.4 137.04L258.8 134.4ZM262 117.96L264.36 116.88C266.16 119.08 268.16 122.16 268.88 124.16L266.44 125.4C265.68 123.4 263.8 120.24 262 117.96ZM282.44 116.44L285.04 117.88C283.32 120.4 281.08 123.36 279.36 125.24L277.24 124C278.92 122.04 281.16 118.8 282.44 116.44ZM277 106.44L278.68 104.8C280.8 105.96 283.36 107.8 284.6 109.12L282.88 110.96C281.64 109.6 279.12 107.68 277 106.44ZM253.8 108.96H256.72V132.12L253.8 132.72V108.96ZM274.24 114.84C275.76 125.4 278.76 131.2 286.12 136.16C285.44 136.68 284.6 137.64 284.24 138.48C276.44 132.88 273.4 126.48 271.72 115.28L274.24 114.84ZM288.76 120.76H325.36V124.04H288.76V120.76ZM329.28 112.36H344.72V115.2H329.28V112.36ZM335.64 104.92H338.48V113.8H335.64V104.92ZM353.92 112.72H365.4V115.56H353.92V112.72ZM347.04 136.44H362.16V139.28H347.04V136.44ZM352.4 104.4H355.44V124.8H352.4V104.4ZM345.64 123.56H363.68V141H360.64V126.36H348.56V141.16H345.64V123.56ZM328.52 133.68C332.64 132.88 338.96 131.52 345 130.12L345.32 132.88C339.64 134.24 333.56 135.68 329.16 136.68L328.52 133.68ZM330.8 117.28L333.24 116.84C334.28 121.28 334.96 126.96 335.04 130.84L332.4 131.28C332.44 127.52 331.72 121.72 330.8 117.28ZM340.12 116.4L343.08 116.96C342.36 121.96 341.28 128.4 340.32 132.32L337.84 131.76C338.76 127.8 339.72 121.08 340.12 116.4ZM395.36 106.4L397.36 104.68C399.44 106.08 401.96 108.16 403.2 109.56L401.08 111.44C399.88 110 397.44 107.84 395.36 106.4ZM369.2 111.88H404.84V114.8H369.2V111.88ZM370.56 120.8H388.24V123.72H370.56V120.8ZM377.76 122.36H380.76V136.64H377.76V122.36ZM369.36 137.04C374.12 136.12 381.96 134.52 389.36 132.92L389.6 135.6C382.76 137.2 375.44 138.88 370.28 140.04L369.36 137.04ZM389.56 104.6H392.76C392.64 123.16 396.24 138.16 401.16 138.16C402.28 138.16 402.76 135.96 403 130.6C403.68 131.28 404.84 131.96 405.68 132.24C405.16 139.24 404 141.28 400.92 141.28C392.96 141.28 389.72 123.96 389.56 104.6ZM417.04 123.04V134.72H414.08V125.8H408.84V123.04H417.04ZM417.04 133.12C418.96 136.04 422.48 137.44 427.2 137.64C431.6 137.76 440.76 137.68 445.56 137.36C445.16 138.04 444.72 139.44 444.56 140.36C440.12 140.52 431.68 140.6 427.2 140.48C421.96 140.24 418.32 138.84 415.72 135.68C413.88 137.4 411.92 139.12 409.88 140.88L408.32 137.88C410.12 136.6 412.4 134.84 414.36 133.12H417.04ZM410.56 106.76L412.56 104.92C414.96 106.16 417.84 108.16 419.2 109.72L417.12 111.76C415.8 110.2 413 108.12 410.56 106.76ZM409 114.92L411 112.96C413.48 114.12 416.52 116.04 418 117.6L415.92 119.72C414.52 118.2 411.56 116.16 409 114.92ZM422.36 106.72H442.48V109.56H422.36V106.72ZM419.76 116.08H445.4V118.92H419.76V116.08ZM428.12 117.52L431.4 118.48C429.76 122.76 427.56 128.12 425.72 131.44L423.28 130.56C425 127.12 427.08 121.48 428.12 117.52ZM420.04 130.12C425.28 129.8 433.76 129.12 441.8 128.44V131.16C434.12 131.92 426 132.64 420.52 133.12L420.04 130.12ZM435.16 122.48L437.56 121.28C440.64 124.88 443.96 129.8 445.2 133.08L442.6 134.52C441.4 131.24 438.24 126.2 435.16 122.48ZM449.72 130.72C449.6 130.16 449.16 128.8 448.8 128.08C449.68 127.92 450.6 126.92 451.84 125.44C453.16 123.96 457.4 118.24 460.16 112.72L462.56 114.16C459.4 119.68 455.52 125.24 451.72 129.2V129.28C451.72 129.28 449.72 130.12 449.72 130.72ZM449.72 130.72L449.6 128.36L451.04 127.36L461.64 125.44C461.56 126.2 461.56 127.32 461.6 127.92C451.88 129.88 450.56 130.24 449.72 130.72ZM449.44 121.12C449.32 120.52 448.84 119.12 448.52 118.36C449.2 118.2 449.84 117.24 450.72 115.88C451.6 114.52 454.4 109.32 455.92 104.48L458.64 105.72C456.68 110.68 453.92 115.88 451.2 119.52V119.6C451.2 119.6 449.44 120.52 449.44 121.12ZM449.44 121.12L449.36 119L450.76 118.08L458.04 117.32C457.92 118.08 457.84 119.12 457.84 119.68C451.16 120.56 450.08 120.8 449.44 121.12ZM448.76 135.88C452.16 135.2 457.32 134 462.36 132.8L462.64 135.36C457.92 136.56 453.04 137.8 449.36 138.76L448.76 135.88ZM467.04 119.44H483.64V122.16H467.04V119.44ZM467.12 127.32H483.72V130.04H467.12V127.32ZM466.84 135.56H485.24V138.36H466.84V135.56ZM474.84 112.6H477.64V137.08H474.84V112.6ZM468.4 111.64H484.68V114.4H468.4V141.24H465.6V113.52L467.36 111.64H468.4ZM468.84 104.64L471.72 105.44C469.8 110.88 466.68 117.16 462.92 121.4C462.64 120.68 461.92 119.44 461.44 118.76C464.64 115.04 467.44 109.24 468.84 104.64ZM473.36 105.68L475.88 104.64C477.08 106.36 478.28 108.68 478.8 110.2L476.08 111.4C475.64 109.84 474.48 107.48 473.36 105.68Z" fill="black"/>
<defs>
<linearGradient id="paint0_linear_208_14" x1="4.48145" y1="-3.61977e-06" x2="145.88" y2="164.214" gradientUnits="userSpaceOnUse">
<stop stop-color="#15B5FE"/>
<stop offset="0.485344" stop-color="#2462FE"/>
<stop offset="1" stop-color="#903FFE"/>
</linearGradient>
<linearGradient id="paint1_linear_208_14" x1="24.2941" y1="33.1712" x2="120.092" y2="119.48" gradientUnits="userSpaceOnUse">
<stop stop-color="#9442FF"/>
<stop offset="1" stop-color="#1AB2FD"/>
</linearGradient>
<linearGradient id="paint2_linear_208_14" x1="61.8694" y1="0.570387" x2="166.918" y2="80.1573" gradientUnits="userSpaceOnUse">
<stop stop-color="#9442FF"/>
<stop offset="1" stop-color="#1AB2FD"/>
</linearGradient>
</defs>
</svg>
